<?xml version="1.0" encoding="UTF-8" standalone="no"?>
<!DOCTYPE svg PUBLIC "-//W3C//DTD SVG 1.1//EN"
 "http://www.w3.org/Graphics/SVG/1.1/DTD/svg11.dtd">
<!-- Generated by graphviz version 2.38.0 (20140413.2041)
 -->
<!-- Title: dependencies Pages: 1 -->
<svg width="504pt" height="211pt"
 viewBox="0.00 0.00 504.00 211.00" xmlns="http://www.w3.org/2000/svg" xmlns:xlink="http://www.w3.org/1999/xlink">
<g id="graph0" class="graph" transform="scale(1 1) rotate(0) translate(4 207)">
<title>dependencies</title>
<polygon fill="white" stroke="none" points="-4,4 -4,-207 500,-207 500,4 -4,4"/>
<text text-anchor="start" x="227.009" y="-42.4" font-family="sans-serif" font-weight="bold" font-size="14.00">Legend</text>
<polygon fill="#ffffb3" stroke="none" points="14,-10 14,-30 34,-30 34,-10 14,-10"/>
<text text-anchor="start" x="37.629" y="-15.4" font-family="sans-serif" font-size="14.00"> &#160;Declarations</text>
<polygon fill="#8dd3c7" stroke="none" points="127,-10 127,-30 147,-30 147,-10 127,-10"/>
<text text-anchor="start" x="150.725" y="-15.4" font-family="sans-serif" font-size="14.00"> &#160;Module</text>
<polygon fill="#80b1d3" stroke="none" points="213,-10 213,-30 233,-30 233,-10 213,-10"/>
<text text-anchor="start" x="236.781" y="-15.4" font-family="sans-serif" font-size="14.00"> &#160;Bootstrap</text>
<polygon fill="#fdb462" stroke="none" points="310,-10 310,-30 330,-30 330,-10 310,-10"/>
<text text-anchor="start" x="333.673" y="-15.4" font-family="sans-serif" font-size="14.00"> &#160;Providers</text>
<polygon fill="#fb8072" stroke="none" points="406,-10 406,-30 426,-30 426,-10 406,-10"/>
<text text-anchor="start" x="429.726" y="-15.4" font-family="sans-serif" font-size="14.00"> &#160;Exports</text>
<g id="clust1" class="cluster"><title>cluster_AboutModule</title>
<polygon fill="none" stroke="black" stroke-dasharray="1,5" points="92,-70 92,-195 404,-195 404,-70 92,-70"/>
</g>
<g id="clust2" class="cluster"><title>cluster_AboutModule_declarations</title>
<polygon fill="none" stroke="black" points="264,-78 264,-130 396,-130 396,-78 264,-78"/>
</g>
<g id="clust4" class="cluster"><title>cluster_AboutModule_imports</title>
<polygon fill="none" stroke="black" points="100,-78 100,-130 256,-130 256,-78 100,-78"/>
</g>
<!-- AboutComponent -->
<g id="node1" class="node"><title>AboutComponent</title>
<polygon fill="#ffffb3" stroke="black" points="388.33,-122 271.67,-122 271.67,-86 388.33,-86 388.33,-122"/>
<text text-anchor="middle" x="330" y="-99.8" font-family="Times,serif" font-size="14.00">AboutComponent</text>
</g>
<!-- AboutModule -->
<g id="node2" class="node"><title>AboutModule</title>
<polygon fill="#8dd3c7" stroke="black" points="301.048,-187 298.048,-191 277.048,-191 274.048,-187 206.952,-187 206.952,-151 301.048,-151 301.048,-187"/>
<text text-anchor="middle" x="254" y="-164.8" font-family="Times,serif" font-size="14.00">AboutModule</text>
</g>
<!-- AboutComponent&#45;&gt;AboutModule -->
<g id="edge1" class="edge"><title>AboutComponent&#45;&gt;AboutModule</title>
<path fill="none" stroke="black" d="M286.554,-122.106C286.554,-122.106 286.554,-140.991 286.554,-140.991"/>
<polygon fill="black" stroke="black" points="283.054,-140.991 286.554,-150.991 290.054,-140.991 283.054,-140.991"/>
</g>
<!-- AboutRoutingModule -->
<g id="node3" class="node"><title>AboutRoutingModule</title>
<polygon fill="#8dd3c7" stroke="black" points="247.665,-122 244.665,-126 223.665,-126 220.665,-122 108.335,-122 108.335,-86 247.665,-86 247.665,-122"/>
<text text-anchor="middle" x="178" y="-99.8" font-family="Times,serif" font-size="14.00">AboutRoutingModule</text>
</g>
<!-- AboutRoutingModule&#45;&gt;AboutModule -->
<g id="edge2" class="edge"><title>AboutRoutingModule&#45;&gt;AboutModule</title>
<path fill="none" stroke="black" d="M227.279,-122.106C227.279,-122.106 227.279,-140.991 227.279,-140.991"/>
<polygon fill="black" stroke="black" points="223.78,-140.991 227.279,-150.991 230.78,-140.991 223.78,-140.991"/>
</g>
</g>
</svg>
