<?xml version="1.0" encoding="UTF-8" standalone="no"?>
<!DOCTYPE svg PUBLIC "-//W3C//DTD SVG 1.1//EN"
 "http://www.w3.org/Graphics/SVG/1.1/DTD/svg11.dtd">
<!-- Generated by graphviz version 2.38.0 (20140413.2041)
 -->
<!-- Title: dependencies Pages: 1 -->
<svg width="1006pt" height="284pt"
 viewBox="0.00 0.00 1006.00 284.00" xmlns="http://www.w3.org/2000/svg" xmlns:xlink="http://www.w3.org/1999/xlink">
<g id="graph0" class="graph" transform="scale(1 1) rotate(0) translate(4 280)">
<title>dependencies</title>
<polygon fill="white" stroke="none" points="-4,4 -4,-280 1002,-280 1002,4 -4,4"/>
<text text-anchor="start" x="478.009" y="-42.4" font-family="sans-serif" font-weight="bold" font-size="14.00">Legend</text>
<polygon fill="#ffffb3" stroke="none" points="265,-10 265,-30 285,-30 285,-10 265,-10"/>
<text text-anchor="start" x="288.629" y="-15.4" font-family="sans-serif" font-size="14.00"> &#160;Declarations</text>
<polygon fill="#8dd3c7" stroke="none" points="378,-10 378,-30 398,-30 398,-10 378,-10"/>
<text text-anchor="start" x="401.725" y="-15.4" font-family="sans-serif" font-size="14.00"> &#160;Module</text>
<polygon fill="#80b1d3" stroke="none" points="464,-10 464,-30 484,-30 484,-10 464,-10"/>
<text text-anchor="start" x="487.781" y="-15.4" font-family="sans-serif" font-size="14.00"> &#160;Bootstrap</text>
<polygon fill="#fdb462" stroke="none" points="561,-10 561,-30 581,-30 581,-10 561,-10"/>
<text text-anchor="start" x="584.673" y="-15.4" font-family="sans-serif" font-size="14.00"> &#160;Providers</text>
<polygon fill="#fb8072" stroke="none" points="657,-10 657,-30 677,-30 677,-10 657,-10"/>
<text text-anchor="start" x="680.726" y="-15.4" font-family="sans-serif" font-size="14.00"> &#160;Exports</text>
<g id="clust1" class="cluster"><title>cluster_HomeModule</title>
<polygon fill="none" stroke="black" stroke-dasharray="1,5" points="8,-70 8,-268 990,-268 990,-70 8,-70"/>
</g>
<g id="clust2" class="cluster"><title>cluster_HomeModule_declarations</title>
<polygon fill="none" stroke="black" points="850,-78 850,-130 982,-130 982,-78 850,-78"/>
</g>
<g id="clust4" class="cluster"><title>cluster_HomeModule_imports</title>
<polygon fill="none" stroke="black" points="16,-78 16,-130 842,-130 842,-78 16,-78"/>
</g>
<g id="clust5" class="cluster"><title>cluster_HomeModule_exports</title>
<polygon fill="none" stroke="black" points="431,-208 431,-260 567,-260 567,-208 431,-208"/>
</g>
<!-- HomeComponent -->
<g id="node1" class="node"><title>HomeComponent</title>
<polygon fill="#ffffb3" stroke="black" points="973.545,-122 858.455,-122 858.455,-86 973.545,-86 973.545,-122"/>
<text text-anchor="middle" x="916" y="-99.8" font-family="Times,serif" font-size="14.00">HomeComponent</text>
</g>
<!-- HomeModule -->
<g id="node2" class="node"><title>HomeModule</title>
<polygon fill="#8dd3c7" stroke="black" points="545.762,-187 542.762,-191 521.762,-191 518.762,-187 452.238,-187 452.238,-151 545.762,-151 545.762,-187"/>
<text text-anchor="middle" x="499" y="-164.8" font-family="Times,serif" font-size="14.00">HomeModule</text>
</g>
<!-- HomeComponent&#45;&gt;HomeModule -->
<g id="edge1" class="edge"><title>HomeComponent&#45;&gt;HomeModule</title>
<path fill="none" stroke="black" d="M916,-122.292C916,-144.206 916,-178 916,-178 916,-178 556.025,-178 556.025,-178"/>
<polygon fill="black" stroke="black" points="556.025,-174.5 546.025,-178 556.025,-181.5 556.025,-174.5"/>
</g>
<!-- HomeComponent  -->
<g id="node10" class="node"><title>HomeComponent </title>
<polygon fill="#fb8072" stroke="black" points="558.544,-252 439.456,-252 439.456,-216 558.544,-216 558.544,-252"/>
<text text-anchor="middle" x="499" y="-229.8" font-family="Times,serif" font-size="14.00">HomeComponent </text>
</g>
<!-- HomeModule&#45;&gt;HomeComponent  -->
<g id="edge9" class="edge"><title>HomeModule&#45;&gt;HomeComponent </title>
<path fill="none" stroke="black" stroke-dasharray="5,2" d="M499,-187.106C499,-187.106 499,-205.991 499,-205.991"/>
<polygon fill="black" stroke="black" points="495.5,-205.991 499,-215.991 502.5,-205.991 495.5,-205.991"/>
</g>
<!-- BrowserModule -->
<g id="node3" class="node"><title>BrowserModule</title>
<polygon fill="#8dd3c7" stroke="black" points="834.473,-122 831.473,-126 810.473,-126 807.473,-122 727.527,-122 727.527,-86 834.473,-86 834.473,-122"/>
<text text-anchor="middle" x="781" y="-99.8" font-family="Times,serif" font-size="14.00">BrowserModule</text>
</g>
<!-- BrowserModule&#45;&gt;HomeModule -->
<g id="edge2" class="edge"><title>BrowserModule&#45;&gt;HomeModule</title>
<path fill="none" stroke="black" d="M781,-122.106C781,-141.339 781,-169 781,-169 781,-169 555.883,-169 555.883,-169"/>
<polygon fill="black" stroke="black" points="555.883,-165.5 545.883,-169 555.883,-172.5 555.883,-165.5"/>
</g>
<!-- FormsModule -->
<g id="node4" class="node"><title>FormsModule</title>
<polygon fill="#8dd3c7" stroke="black" points="709.829,-122 706.829,-126 685.829,-126 682.829,-122 614.171,-122 614.171,-86 709.829,-86 709.829,-122"/>
<text text-anchor="middle" x="662" y="-99.8" font-family="Times,serif" font-size="14.00">FormsModule</text>
</g>
<!-- FormsModule&#45;&gt;HomeModule -->
<g id="edge3" class="edge"><title>FormsModule&#45;&gt;HomeModule</title>
<path fill="none" stroke="black" d="M662,-122.027C662,-138.398 662,-160 662,-160 662,-160 556.146,-160 556.146,-160"/>
<polygon fill="black" stroke="black" points="556.146,-156.5 546.146,-160 556.146,-163.5 556.146,-156.5"/>
</g>
<!-- HttpModule -->
<g id="node5" class="node"><title>HttpModule</title>
<polygon fill="#8dd3c7" stroke="black" points="596.439,-122 593.439,-126 572.439,-126 569.439,-122 511.561,-122 511.561,-86 596.439,-86 596.439,-122"/>
<text text-anchor="middle" x="554" y="-99.8" font-family="Times,serif" font-size="14.00">HttpModule</text>
</g>
<!-- HttpModule&#45;&gt;HomeModule -->
<g id="edge4" class="edge"><title>HttpModule&#45;&gt;HomeModule</title>
<path fill="none" stroke="black" d="M528.831,-122.106C528.831,-122.106 528.831,-140.991 528.831,-140.991"/>
<polygon fill="black" stroke="black" points="525.331,-140.991 528.831,-150.991 532.331,-140.991 525.331,-140.991"/>
</g>
<!-- HeaderModule -->
<g id="node6" class="node"><title>HeaderModule</title>
<polygon fill="#8dd3c7" stroke="black" points="493.961,-122 490.961,-126 469.961,-126 466.961,-122 394.039,-122 394.039,-86 493.961,-86 493.961,-122"/>
<text text-anchor="middle" x="444" y="-99.8" font-family="Times,serif" font-size="14.00">HeaderModule</text>
</g>
<!-- HeaderModule&#45;&gt;HomeModule -->
<g id="edge5" class="edge"><title>HeaderModule&#45;&gt;HomeModule</title>
<path fill="none" stroke="black" d="M473.05,-122.106C473.05,-122.106 473.05,-140.991 473.05,-140.991"/>
<polygon fill="black" stroke="black" points="469.55,-140.991 473.05,-150.991 476.55,-140.991 469.55,-140.991"/>
</g>
<!-- ListModule -->
<g id="node7" class="node"><title>ListModule</title>
<polygon fill="#8dd3c7" stroke="black" points="375.829,-122 372.829,-126 351.829,-126 348.829,-122 294.171,-122 294.171,-86 375.829,-86 375.829,-122"/>
<text text-anchor="middle" x="335" y="-99.8" font-family="Times,serif" font-size="14.00">ListModule</text>
</g>
<!-- ListModule&#45;&gt;HomeModule -->
<g id="edge6" class="edge"><title>ListModule&#45;&gt;HomeModule</title>
<path fill="none" stroke="black" d="M335,-122.027C335,-138.398 335,-160 335,-160 335,-160 442.004,-160 442.004,-160"/>
<polygon fill="black" stroke="black" points="442.004,-163.5 452.004,-160 442.004,-156.5 442.004,-163.5"/>
</g>
<!-- FooterModule -->
<g id="node8" class="node"><title>FooterModule</title>
<polygon fill="#8dd3c7" stroke="black" points="276.098,-122 273.098,-126 252.098,-126 249.098,-122 179.902,-122 179.902,-86 276.098,-86 276.098,-122"/>
<text text-anchor="middle" x="228" y="-99.8" font-family="Times,serif" font-size="14.00">FooterModule</text>
</g>
<!-- FooterModule&#45;&gt;HomeModule -->
<g id="edge7" class="edge"><title>FooterModule&#45;&gt;HomeModule</title>
<path fill="none" stroke="black" d="M228,-122.106C228,-141.339 228,-169 228,-169 228,-169 442.105,-169 442.105,-169"/>
<polygon fill="black" stroke="black" points="442.105,-172.5 452.105,-169 442.105,-165.5 442.105,-172.5"/>
</g>
<!-- HomeRoutingModule -->
<g id="node9" class="node"><title>HomeRoutingModule</title>
<polygon fill="#8dd3c7" stroke="black" points="162.379,-122 159.379,-126 138.379,-126 135.379,-122 23.6205,-122 23.6205,-86 162.379,-86 162.379,-122"/>
<text text-anchor="middle" x="93" y="-99.8" font-family="Times,serif" font-size="14.00">HomeRoutingModule</text>
</g>
<!-- HomeRoutingModule&#45;&gt;HomeModule -->
<g id="edge8" class="edge"><title>HomeRoutingModule&#45;&gt;HomeModule</title>
<path fill="none" stroke="black" d="M93,-122.292C93,-144.206 93,-178 93,-178 93,-178 442.03,-178 442.03,-178"/>
<polygon fill="black" stroke="black" points="442.03,-181.5 452.03,-178 442.03,-174.5 442.03,-181.5"/>
</g>
</g>
</svg>
