<?xml version="1.0" encoding="UTF-8" standalone="no"?>
<!DOCTYPE svg PUBLIC "-//W3C//DTD SVG 1.1//EN"
 "http://www.w3.org/Graphics/SVG/1.1/DTD/svg11.dtd">
<!-- Generated by graphviz version 2.38.0 (20140413.2041)
 -->
<!-- Title: dependencies Pages: 1 -->
<svg width="504pt" height="284pt"
 viewBox="0.00 0.00 504.00 284.00" xmlns="http://www.w3.org/2000/svg" xmlns:xlink="http://www.w3.org/1999/xlink">
<g id="graph0" class="graph" transform="scale(1 1) rotate(0) translate(4 280)">
<title>dependencies</title>
<polygon fill="white" stroke="none" points="-4,4 -4,-280 500,-280 500,4 -4,4"/>
<text text-anchor="start" x="227.009" y="-42.4" font-family="sans-serif" font-weight="bold" font-size="14.00">Legend</text>
<polygon fill="#ffffb3" stroke="none" points="14,-10 14,-30 34,-30 34,-10 14,-10"/>
<text text-anchor="start" x="37.629" y="-15.4" font-family="sans-serif" font-size="14.00"> &#160;Declarations</text>
<polygon fill="#8dd3c7" stroke="none" points="127,-10 127,-30 147,-30 147,-10 127,-10"/>
<text text-anchor="start" x="150.725" y="-15.4" font-family="sans-serif" font-size="14.00"> &#160;Module</text>
<polygon fill="#80b1d3" stroke="none" points="213,-10 213,-30 233,-30 233,-10 213,-10"/>
<text text-anchor="start" x="236.781" y="-15.4" font-family="sans-serif" font-size="14.00"> &#160;Bootstrap</text>
<polygon fill="#fdb462" stroke="none" points="310,-10 310,-30 330,-30 330,-10 310,-10"/>
<text text-anchor="start" x="333.673" y="-15.4" font-family="sans-serif" font-size="14.00"> &#160;Providers</text>
<polygon fill="#fb8072" stroke="none" points="406,-10 406,-30 426,-30 426,-10 406,-10"/>
<text text-anchor="start" x="429.726" y="-15.4" font-family="sans-serif" font-size="14.00"> &#160;Exports</text>
<g id="clust1" class="cluster"><title>cluster_HeaderModule</title>
<polygon fill="none" stroke="black" stroke-dasharray="1,5" points="111,-70 111,-268 385,-268 385,-70 111,-70"/>
</g>
<g id="clust2" class="cluster"><title>cluster_HeaderModule_declarations</title>
<polygon fill="none" stroke="black" points="239,-78 239,-130 377,-130 377,-78 239,-78"/>
</g>
<g id="clust4" class="cluster"><title>cluster_HeaderModule_imports</title>
<polygon fill="none" stroke="black" points="119,-78 119,-130 231,-130 231,-78 119,-78"/>
</g>
<g id="clust5" class="cluster"><title>cluster_HeaderModule_exports</title>
<polygon fill="none" stroke="black" points="177,-208 177,-260 319,-260 319,-208 177,-208"/>
</g>
<!-- HeaderComponent -->
<g id="node1" class="node"><title>HeaderComponent</title>
<polygon fill="#ffffb3" stroke="black" points="368.744,-122 247.256,-122 247.256,-86 368.744,-86 368.744,-122"/>
<text text-anchor="middle" x="308" y="-99.8" font-family="Times,serif" font-size="14.00">HeaderComponent</text>
</g>
<!-- HeaderModule -->
<g id="node2" class="node"><title>HeaderModule</title>
<polygon fill="#8dd3c7" stroke="black" points="297.961,-187 294.961,-191 273.961,-191 270.961,-187 198.039,-187 198.039,-151 297.961,-151 297.961,-187"/>
<text text-anchor="middle" x="248" y="-164.8" font-family="Times,serif" font-size="14.00">HeaderModule</text>
</g>
<!-- HeaderComponent&#45;&gt;HeaderModule -->
<g id="edge1" class="edge"><title>HeaderComponent&#45;&gt;HeaderModule</title>
<path fill="none" stroke="black" d="M272.554,-122.106C272.554,-122.106 272.554,-140.991 272.554,-140.991"/>
<polygon fill="black" stroke="black" points="269.054,-140.991 272.554,-150.991 276.054,-140.991 269.054,-140.991"/>
</g>
<!-- HeaderComponent  -->
<g id="node4" class="node"><title>HeaderComponent </title>
<polygon fill="#fb8072" stroke="black" points="310.744,-252 185.256,-252 185.256,-216 310.744,-216 310.744,-252"/>
<text text-anchor="middle" x="248" y="-229.8" font-family="Times,serif" font-size="14.00">HeaderComponent </text>
</g>
<!-- HeaderModule&#45;&gt;HeaderComponent  -->
<g id="edge3" class="edge"><title>HeaderModule&#45;&gt;HeaderComponent </title>
<path fill="none" stroke="black" stroke-dasharray="5,2" d="M248,-187.106C248,-187.106 248,-205.991 248,-205.991"/>
<polygon fill="black" stroke="black" points="244.5,-205.991 248,-215.991 251.5,-205.991 244.5,-205.991"/>
</g>
<!-- FormsModule -->
<g id="node3" class="node"><title>FormsModule</title>
<polygon fill="#8dd3c7" stroke="black" points="222.829,-122 219.829,-126 198.829,-126 195.829,-122 127.171,-122 127.171,-86 222.829,-86 222.829,-122"/>
<text text-anchor="middle" x="175" y="-99.8" font-family="Times,serif" font-size="14.00">FormsModule</text>
</g>
<!-- FormsModule&#45;&gt;HeaderModule -->
<g id="edge2" class="edge"><title>FormsModule&#45;&gt;HeaderModule</title>
<path fill="none" stroke="black" d="M210.342,-122.106C210.342,-122.106 210.342,-140.991 210.342,-140.991"/>
<polygon fill="black" stroke="black" points="206.842,-140.991 210.342,-150.991 213.842,-140.991 206.842,-140.991"/>
</g>
</g>
</svg>
