<?xml version="1.0" encoding="UTF-8" standalone="no"?>
<!DOCTYPE svg PUBLIC "-//W3C//DTD SVG 1.1//EN"
 "http://www.w3.org/Graphics/SVG/1.1/DTD/svg11.dtd">
<!-- Generated by graphviz version 2.38.0 (20140413.2041)
 -->
<!-- Title: dependencies Pages: 1 -->
<svg width="2179pt" height="512pt"
 viewBox="0.00 0.00 2179.00 512.00" xmlns="http://www.w3.org/2000/svg" xmlns:xlink="http://www.w3.org/1999/xlink">
<g id="graph0" class="graph" transform="scale(1 1) rotate(0) translate(4 508)">
<title>dependencies</title>
<polygon fill="white" stroke="none" points="-4,4 -4,-508 2175,-508 2175,4 -4,4"/>
<text text-anchor="start" x="1064.51" y="-42.4" font-family="sans-serif" font-weight="bold" font-size="14.00">Legend</text>
<polygon fill="#ffffb3" stroke="none" points="851.5,-10 851.5,-30 871.5,-30 871.5,-10 851.5,-10"/>
<text text-anchor="start" x="875.129" y="-15.4" font-family="sans-serif" font-size="14.00"> &#160;Declarations</text>
<polygon fill="#8dd3c7" stroke="none" points="964.5,-10 964.5,-30 984.5,-30 984.5,-10 964.5,-10"/>
<text text-anchor="start" x="988.225" y="-15.4" font-family="sans-serif" font-size="14.00"> &#160;Module</text>
<polygon fill="#80b1d3" stroke="none" points="1050.5,-10 1050.5,-30 1070.5,-30 1070.5,-10 1050.5,-10"/>
<text text-anchor="start" x="1074.28" y="-15.4" font-family="sans-serif" font-size="14.00"> &#160;Bootstrap</text>
<polygon fill="#fdb462" stroke="none" points="1147.5,-10 1147.5,-30 1167.5,-30 1167.5,-10 1147.5,-10"/>
<text text-anchor="start" x="1171.17" y="-15.4" font-family="sans-serif" font-size="14.00"> &#160;Providers</text>
<polygon fill="#fb8072" stroke="none" points="1243.5,-10 1243.5,-30 1263.5,-30 1263.5,-10 1243.5,-10"/>
<text text-anchor="start" x="1267.23" y="-15.4" font-family="sans-serif" font-size="14.00"> &#160;Exports</text>
<g id="clust1" class="cluster"><title>cluster_AboutRoutingModule</title>
<polygon fill="none" stroke="black" stroke-dasharray="1,5" points="164,-146 164,-366 705,-366 705,-146 164,-146"/>
</g>
<g id="clust2" class="cluster"><title>cluster_AboutRoutingModule_declarations</title>
<polygon fill="none" stroke="black" points="172,-154 172,-206 491,-206 491,-154 172,-154"/>
</g>
<g id="clust5" class="cluster"><title>cluster_AboutRoutingModule_imports</title>
<polygon fill="none" stroke="black" points="499,-154 499,-206 697,-206 697,-154 499,-154"/>
</g>
<g id="clust6" class="cluster"><title>cluster_AboutRoutingModule_exports</title>
<polygon fill="none" stroke="black" points="579,-306 579,-358 697,-358 697,-306 579,-306"/>
</g>
<g id="clust9" class="cluster"><title>cluster_AboutModule</title>
<polygon fill="none" stroke="black" stroke-dasharray="1,5" points="8,-222 8,-358 156,-358 156,-222 8,-222"/>
</g>
<g id="clust10" class="cluster"><title>cluster_AboutModule_declarations</title>
<polygon fill="none" stroke="black" points="16,-230 16,-282 148,-282 148,-230 16,-230"/>
</g>
<g id="clust16" class="cluster"><title>cluster_AppRoutingModule</title>
<polygon fill="none" stroke="black" stroke-dasharray="1,5" points="1953,-146 1953,-282 2163,-282 2163,-146 1953,-146"/>
</g>
<g id="clust18" class="cluster"><title>cluster_AppRoutingModule_imports</title>
<polygon fill="none" stroke="black" points="1961,-154 1961,-206 2155,-206 2155,-154 1961,-154"/>
</g>
<g id="clust22" class="cluster"><title>cluster_AppModule</title>
<polygon fill="none" stroke="black" stroke-dasharray="1,5" points="1223,-298 1223,-496 1607,-496 1607,-298 1223,-298"/>
</g>
<g id="clust23" class="cluster"><title>cluster_AppModule_declarations</title>
<polygon fill="none" stroke="black" points="1477,-306 1477,-358 1599,-358 1599,-306 1477,-306"/>
</g>
<g id="clust25" class="cluster"><title>cluster_AppModule_imports</title>
<polygon fill="none" stroke="black" points="1359,-306 1359,-358 1469,-358 1469,-306 1359,-306"/>
</g>
<g id="clust27" class="cluster"><title>cluster_AppModule_bootstrap</title>
<polygon fill="none" stroke="black" points="1413,-436 1413,-488 1537,-488 1537,-436 1413,-436"/>
</g>
<g id="clust28" class="cluster"><title>cluster_AppModule_providers</title>
<polygon fill="none" stroke="black" points="1231,-306 1231,-358 1351,-358 1351,-306 1231,-306"/>
</g>
<g id="clust29" class="cluster"><title>cluster_FooterModule</title>
<polygon fill="none" stroke="black" stroke-dasharray="1,5" points="875,-70 875,-290 1155,-290 1155,-70 875,-70"/>
</g>
<g id="clust30" class="cluster"><title>cluster_FooterModule_declarations</title>
<polygon fill="none" stroke="black" points="883,-78 883,-130 1017,-130 1017,-78 883,-78"/>
</g>
<g id="clust32" class="cluster"><title>cluster_FooterModule_imports</title>
<polygon fill="none" stroke="black" points="1025,-78 1025,-130 1147,-130 1147,-78 1025,-78"/>
</g>
<g id="clust33" class="cluster"><title>cluster_FooterModule_exports</title>
<polygon fill="none" stroke="black" points="978,-230 978,-282 1116,-282 1116,-230 978,-230"/>
</g>
<g id="clust36" class="cluster"><title>cluster_HeaderModule</title>
<polygon fill="none" stroke="black" stroke-dasharray="1,5" points="1671,-146 1671,-366 1945,-366 1945,-146 1671,-146"/>
</g>
<g id="clust37" class="cluster"><title>cluster_HeaderModule_declarations</title>
<polygon fill="none" stroke="black" points="1799,-154 1799,-206 1937,-206 1937,-154 1799,-154"/>
</g>
<g id="clust39" class="cluster"><title>cluster_HeaderModule_imports</title>
<polygon fill="none" stroke="black" points="1679,-154 1679,-206 1791,-206 1791,-154 1679,-154"/>
</g>
<g id="clust40" class="cluster"><title>cluster_HeaderModule_exports</title>
<polygon fill="none" stroke="black" points="1688,-306 1688,-358 1830,-358 1830,-306 1688,-306"/>
</g>
<g id="clust43" class="cluster"><title>cluster_HomeRoutingModule</title>
<polygon fill="none" stroke="black" stroke-dasharray="1,5" points="713,-230 713,-282 867,-282 867,-230 713,-230"/>
</g>
<g id="clust49" class="cluster"><title>cluster_HomeModule</title>
<polygon fill="none" stroke="black" stroke-dasharray="1,5" points="1163,-222 1163,-290 1663,-290 1663,-222 1163,-222"/>
</g>
<g id="clust50" class="cluster"><title>cluster_HomeModule_declarations</title>
<polygon fill="none" stroke="black" points="1523,-230 1523,-282 1655,-282 1655,-230 1523,-230"/>
</g>
<g id="clust52" class="cluster"><title>cluster_HomeModule_imports</title>
<polygon fill="none" stroke="black" points="1315,-230 1315,-282 1515,-282 1515,-230 1315,-230"/>
</g>
<g id="clust53" class="cluster"><title>cluster_HomeModule_exports</title>
<polygon fill="none" stroke="black" points="1171,-230 1171,-282 1307,-282 1307,-230 1171,-230"/>
</g>
<g id="clust56" class="cluster"><title>cluster_ListModule</title>
<polygon fill="none" stroke="black" stroke-dasharray="1,5" points="1192,-146 1192,-214 1572,-214 1572,-146 1192,-146"/>
</g>
<g id="clust57" class="cluster"><title>cluster_ListModule_declarations</title>
<polygon fill="none" stroke="black" points="1444,-154 1444,-206 1564,-206 1564,-154 1444,-154"/>
</g>
<g id="clust59" class="cluster"><title>cluster_ListModule_imports</title>
<polygon fill="none" stroke="black" points="1330,-154 1330,-206 1436,-206 1436,-154 1330,-154"/>
</g>
<g id="clust60" class="cluster"><title>cluster_ListModule_exports</title>
<polygon fill="none" stroke="black" points="1200,-154 1200,-206 1322,-206 1322,-154 1200,-154"/>
</g>
<g id="clust63" class="cluster"><title>cluster_TodoModule</title>
<polygon fill="none" stroke="black" stroke-dasharray="1,5" points="1163,-70 1163,-138 1712,-138 1712,-70 1163,-70"/>
</g>
<g id="clust64" class="cluster"><title>cluster_TodoModule_declarations</title>
<polygon fill="none" stroke="black" points="1309,-78 1309,-130 1704,-130 1704,-78 1309,-78"/>
</g>
<g id="clust69" class="cluster"><title>cluster_TodoModule_exports</title>
<polygon fill="none" stroke="black" points="1171,-78 1171,-130 1301,-130 1301,-78 1171,-78"/>
</g>
<!-- TodoMVCComponent -->
<g id="node1" class="node"><title>TodoMVCComponent</title>
<polygon fill="#ffffb3" stroke="black" points="483.273,-198 340.727,-198 340.727,-162 483.273,-162 483.273,-198"/>
<text text-anchor="middle" x="412" y="-175.8" font-family="Times,serif" font-size="14.00">TodoMVCComponent</text>
</g>
<!-- AboutRoutingModule -->
<g id="node3" class="node"><title>AboutRoutingModule</title>
<polygon fill="#8dd3c7" stroke="black" points="481.665,-274 478.665,-278 457.665,-278 454.665,-274 342.335,-274 342.335,-238 481.665,-238 481.665,-274"/>
<text text-anchor="middle" x="412" y="-251.8" font-family="Times,serif" font-size="14.00">AboutRoutingModule</text>
</g>
<!-- TodoMVCComponent&#45;&gt;AboutRoutingModule -->
<g id="edge1" class="edge"><title>TodoMVCComponent&#45;&gt;AboutRoutingModule</title>
<path fill="none" stroke="black" d="M412,-198.011C412,-198.011 412,-227.855 412,-227.855"/>
<polygon fill="black" stroke="black" points="408.5,-227.855 412,-237.855 415.5,-227.855 408.5,-227.855"/>
</g>
<!-- CompodocComponent -->
<g id="node2" class="node"><title>CompodocComponent</title>
<polygon fill="#ffffb3" stroke="black" points="322.274,-198 179.726,-198 179.726,-162 322.274,-162 322.274,-198"/>
<text text-anchor="middle" x="251" y="-175.8" font-family="Times,serif" font-size="14.00">CompodocComponent</text>
</g>
<!-- CompodocComponent&#45;&gt;AboutRoutingModule -->
<g id="edge2" class="edge"><title>CompodocComponent&#45;&gt;AboutRoutingModule</title>
<path fill="none" stroke="black" d="M251,-198.011C251,-220.485 251,-256 251,-256 251,-256 332.319,-256 332.319,-256"/>
<polygon fill="black" stroke="black" points="332.319,-259.5 342.319,-256 332.319,-252.5 332.319,-259.5"/>
</g>
<!-- RouterModule  -->
<g id="node5" class="node"><title>RouterModule </title>
<polygon fill="#fb8072" stroke="black" points="688.652,-350 587.348,-350 587.348,-314 688.652,-314 688.652,-350"/>
<text text-anchor="middle" x="638" y="-327.8" font-family="Times,serif" font-size="14.00">RouterModule </text>
</g>
<!-- AboutRoutingModule&#45;&gt;RouterModule  -->
<g id="edge4" class="edge"><title>AboutRoutingModule&#45;&gt;RouterModule </title>
<path fill="none" stroke="black" stroke-dasharray="5,2" d="M481.807,-260C537.996,-260 607.654,-260 607.654,-260 607.654,-260 607.654,-303.831 607.654,-303.831"/>
<polygon fill="black" stroke="black" points="604.154,-303.831 607.654,-313.831 611.154,-303.831 604.154,-303.831"/>
</g>
<!-- AboutModule -->
<g id="node7" class="node"><title>AboutModule</title>
<polygon fill="#8dd3c7" stroke="black" points="138.048,-350 135.048,-354 114.048,-354 111.048,-350 43.9519,-350 43.9519,-314 138.048,-314 138.048,-350"/>
<text text-anchor="middle" x="91" y="-327.8" font-family="Times,serif" font-size="14.00">AboutModule</text>
</g>
<!-- AboutRoutingModule&#45;&gt;AboutModule -->
<g id="edge6" class="edge"><title>AboutRoutingModule&#45;&gt;AboutModule</title>
<path fill="none" stroke="black" d="M412,-274.011C412,-296.485 412,-332 412,-332 412,-332 148.365,-332 148.365,-332"/>
<polygon fill="black" stroke="black" points="148.365,-328.5 138.365,-332 148.365,-335.5 148.365,-328.5"/>
</g>
<!-- RouterModule.forChild(args) -->
<g id="node4" class="node"><title>RouterModule.forChild(args)</title>
<polygon fill="#8dd3c7" stroke="black" points="688.732,-198 685.732,-202 664.732,-202 661.732,-198 507.268,-198 507.268,-162 688.732,-162 688.732,-198"/>
<text text-anchor="middle" x="598" y="-175.8" font-family="Times,serif" font-size="14.00">RouterModule.forChild(args)</text>
</g>
<!-- RouterModule.forChild(args)&#45;&gt;AboutRoutingModule -->
<g id="edge3" class="edge"><title>RouterModule.forChild(args)&#45;&gt;AboutRoutingModule</title>
<path fill="none" stroke="black" d="M547.404,-198.045C547.404,-219.662 547.404,-253 547.404,-253 547.404,-253 491.685,-253 491.685,-253"/>
<polygon fill="black" stroke="black" points="491.685,-249.5 481.685,-253 491.685,-256.5 491.685,-249.5"/>
</g>
<!-- HomeRoutingModule -->
<g id="node23" class="node"><title>HomeRoutingModule</title>
<polygon fill="#8dd3c7" stroke="black" points="859.379,-274 856.379,-278 835.379,-278 832.379,-274 720.621,-274 720.621,-238 859.379,-238 859.379,-274"/>
<text text-anchor="middle" x="790" y="-251.8" font-family="Times,serif" font-size="14.00">HomeRoutingModule</text>
</g>
<!-- RouterModule.forChild(args)&#45;&gt;HomeRoutingModule -->
<g id="edge20" class="edge"><title>RouterModule.forChild(args)&#45;&gt;HomeRoutingModule</title>
<path fill="none" stroke="black" d="M627.885,-198.035C627.885,-217.576 627.885,-246 627.885,-246 627.885,-246 710.308,-246 710.308,-246"/>
<polygon fill="black" stroke="black" points="710.308,-249.5 720.308,-246 710.308,-242.5 710.308,-249.5"/>
</g>
<!-- AboutComponent -->
<g id="node6" class="node"><title>AboutComponent</title>
<polygon fill="#ffffb3" stroke="black" points="140.33,-274 23.6699,-274 23.6699,-238 140.33,-238 140.33,-274"/>
<text text-anchor="middle" x="82" y="-251.8" font-family="Times,serif" font-size="14.00">AboutComponent</text>
</g>
<!-- AboutComponent&#45;&gt;AboutModule -->
<g id="edge5" class="edge"><title>AboutComponent&#45;&gt;AboutModule</title>
<path fill="none" stroke="black" d="M91,-274.011C91,-274.011 91,-303.855 91,-303.855"/>
<polygon fill="black" stroke="black" points="87.5001,-303.855 91,-313.855 94.5001,-303.855 87.5001,-303.855"/>
</g>
<!-- RouterModule.forRoot(args) -->
<g id="node8" class="node"><title>RouterModule.forRoot(args)</title>
<polygon fill="#8dd3c7" stroke="black" points="2146.84,-198 2143.84,-202 2122.84,-202 2119.84,-198 1969.16,-198 1969.16,-162 2146.84,-162 2146.84,-198"/>
<text text-anchor="middle" x="2058" y="-175.8" font-family="Times,serif" font-size="14.00">RouterModule.forRoot(args)</text>
</g>
<!-- AppRoutingModule -->
<g id="node9" class="node"><title>AppRoutingModule</title>
<polygon fill="#8dd3c7" stroke="black" points="2089.27,-274 2086.27,-278 2065.27,-278 2062.27,-274 1960.73,-274 1960.73,-238 2089.27,-238 2089.27,-274"/>
<text text-anchor="middle" x="2025" y="-251.8" font-family="Times,serif" font-size="14.00">AppRoutingModule</text>
</g>
<!-- RouterModule.forRoot(args)&#45;&gt;AppRoutingModule -->
<g id="edge7" class="edge"><title>RouterModule.forRoot(args)&#45;&gt;AppRoutingModule</title>
<path fill="none" stroke="black" d="M2029.36,-198.011C2029.36,-198.011 2029.36,-227.855 2029.36,-227.855"/>
<polygon fill="black" stroke="black" points="2025.86,-227.855 2029.36,-237.855 2032.86,-227.855 2025.86,-227.855"/>
</g>
<!-- AppRoutingModule&#45;&gt;RouterModule  -->
<g id="edge8" class="edge"><title>AppRoutingModule&#45;&gt;RouterModule </title>
<path fill="none" stroke="black" stroke-dasharray="5,2" d="M2003.54,-274.122C2003.54,-276.973 2003.54,-279 2003.54,-279 2003.54,-279 668.346,-279 668.346,-279 668.346,-279 668.346,-303.76 668.346,-303.76"/>
<polygon fill="black" stroke="black" points="664.846,-303.76 668.346,-313.76 671.846,-303.76 664.846,-303.76"/>
</g>
<!-- AppModule -->
<g id="node11" class="node"><title>AppModule</title>
<polygon fill="#8dd3c7" stroke="black" points="1516.66,-415 1513.66,-419 1492.66,-419 1489.66,-415 1433.34,-415 1433.34,-379 1516.66,-379 1516.66,-415"/>
<text text-anchor="middle" x="1475" y="-392.8" font-family="Times,serif" font-size="14.00">AppModule</text>
</g>
<!-- AppRoutingModule&#45;&gt;AppModule -->
<g id="edge11" class="edge"><title>AppRoutingModule&#45;&gt;AppModule</title>
<path fill="none" stroke="black" d="M2046.46,-274.145C2046.46,-312.226 2046.46,-397 2046.46,-397 2046.46,-397 1527.02,-397 1527.02,-397"/>
<polygon fill="black" stroke="black" points="1527.02,-393.5 1517.02,-397 1527.02,-400.5 1527.02,-393.5"/>
</g>
<!-- AppComponent -->
<g id="node10" class="node"><title>AppComponent</title>
<polygon fill="#ffffb3" stroke="black" points="1590.94,-350 1485.06,-350 1485.06,-314 1590.94,-314 1590.94,-350"/>
<text text-anchor="middle" x="1538" y="-327.8" font-family="Times,serif" font-size="14.00">AppComponent</text>
</g>
<!-- AppComponent&#45;&gt;AppModule -->
<g id="edge9" class="edge"><title>AppComponent&#45;&gt;AppModule</title>
<path fill="none" stroke="black" d="M1501.05,-350.106C1501.05,-350.106 1501.05,-368.991 1501.05,-368.991"/>
<polygon fill="black" stroke="black" points="1497.55,-368.991 1501.05,-378.991 1504.55,-368.991 1497.55,-368.991"/>
</g>
<!-- AppComponent  -->
<g id="node13" class="node"><title>AppComponent </title>
<polygon fill="#80b1d3" stroke="black" points="1529.44,-480 1420.56,-480 1420.56,-444 1529.44,-444 1529.44,-480"/>
<text text-anchor="middle" x="1475" y="-457.8" font-family="Times,serif" font-size="14.00">AppComponent </text>
</g>
<!-- AppModule&#45;&gt;AppComponent  -->
<g id="edge12" class="edge"><title>AppModule&#45;&gt;AppComponent </title>
<path fill="none" stroke="black" stroke-dasharray="1,5" d="M1475,-415.106C1475,-415.106 1475,-433.991 1475,-433.991"/>
<polygon fill="black" stroke="black" points="1471.5,-433.991 1475,-443.991 1478.5,-433.991 1471.5,-433.991"/>
</g>
<!-- HomeModule -->
<g id="node12" class="node"><title>HomeModule</title>
<polygon fill="#8dd3c7" stroke="black" points="1460.76,-350 1457.76,-354 1436.76,-354 1433.76,-350 1367.24,-350 1367.24,-314 1460.76,-314 1460.76,-350"/>
<text text-anchor="middle" x="1414" y="-327.8" font-family="Times,serif" font-size="14.00">HomeModule</text>
</g>
<!-- HomeModule&#45;&gt;AppModule -->
<g id="edge10" class="edge"><title>HomeModule&#45;&gt;AppModule</title>
<path fill="none" stroke="black" d="M1447.03,-350.106C1447.03,-350.106 1447.03,-368.991 1447.03,-368.991"/>
<polygon fill="black" stroke="black" points="1443.53,-368.991 1447.03,-378.991 1450.53,-368.991 1443.53,-368.991"/>
</g>
<!-- HomeComponent  -->
<g id="node27" class="node"><title>HomeComponent </title>
<polygon fill="#fb8072" stroke="black" points="1298.54,-274 1179.46,-274 1179.46,-238 1298.54,-238 1298.54,-274"/>
<text text-anchor="middle" x="1239" y="-251.8" font-family="Times,serif" font-size="14.00">HomeComponent </text>
</g>
<!-- HomeModule&#45;&gt;HomeComponent  -->
<g id="edge30" class="edge"><title>HomeModule&#45;&gt;HomeComponent </title>
<path fill="none" stroke="black" stroke-dasharray="5,2" d="M1389.65,-313.955C1389.65,-306.251 1389.65,-299 1389.65,-299 1389.65,-299 1268.86,-299 1268.86,-299 1268.86,-299 1268.86,-284.485 1268.86,-284.485"/>
<polygon fill="black" stroke="black" points="1272.36,-284.485 1268.86,-274.485 1265.36,-284.485 1272.36,-284.485"/>
</g>
<!-- TodoStore -->
<g id="node14" class="node"><title>TodoStore</title>
<ellipse fill="#fdb462" stroke="black" cx="1291" cy="-332" rx="51.6073" ry="18"/>
<text text-anchor="middle" x="1291" y="-327.8" font-family="Times,serif" font-size="14.00">TodoStore</text>
</g>
<!-- TodoStore&#45;&gt;AppModule -->
<g id="edge13" class="edge"><title>TodoStore&#45;&gt;AppModule</title>
<path fill="none" stroke="black" d="M1291,-350.106C1291,-369.339 1291,-397 1291,-397 1291,-397 1423.25,-397 1423.25,-397"/>
<polygon fill="black" stroke="black" points="1423.25,-400.5 1433.25,-397 1423.25,-393.5 1423.25,-400.5"/>
</g>
<!-- FooterComponent -->
<g id="node15" class="node"><title>FooterComponent</title>
<polygon fill="#ffffb3" stroke="black" points="1008.88,-122 891.119,-122 891.119,-86 1008.88,-86 1008.88,-122"/>
<text text-anchor="middle" x="950" y="-99.8" font-family="Times,serif" font-size="14.00">FooterComponent</text>
</g>
<!-- FooterModule -->
<g id="node16" class="node"><title>FooterModule</title>
<polygon fill="#8dd3c7" stroke="black" points="1050.1,-198 1047.1,-202 1026.1,-202 1023.1,-198 953.902,-198 953.902,-162 1050.1,-162 1050.1,-198"/>
<text text-anchor="middle" x="1002" y="-175.8" font-family="Times,serif" font-size="14.00">FooterModule</text>
</g>
<!-- FooterComponent&#45;&gt;FooterModule -->
<g id="edge14" class="edge"><title>FooterComponent&#45;&gt;FooterModule</title>
<path fill="none" stroke="black" d="M981.446,-122.011C981.446,-122.011 981.446,-151.855 981.446,-151.855"/>
<polygon fill="black" stroke="black" points="977.946,-151.855 981.446,-161.855 984.946,-151.855 977.946,-151.855"/>
</g>
<!-- FooterModule&#45;&gt;HomeModule -->
<g id="edge28" class="edge"><title>FooterModule&#45;&gt;HomeModule</title>
<path fill="none" stroke="black" d="M1028.8,-198.207C1028.8,-203.555 1028.8,-208 1028.8,-208 1028.8,-208 1413.72,-208 1413.72,-208 1413.72,-208 1413.72,-303.969 1413.72,-303.969"/>
<polygon fill="black" stroke="black" points="1410.22,-303.969 1413.72,-313.969 1417.22,-303.969 1410.22,-303.969"/>
</g>
<!-- FooterComponent  -->
<g id="node18" class="node"><title>FooterComponent </title>
<polygon fill="#fb8072" stroke="black" points="1107.88,-274 986.119,-274 986.119,-238 1107.88,-238 1107.88,-274"/>
<text text-anchor="middle" x="1047" y="-251.8" font-family="Times,serif" font-size="14.00">FooterComponent </text>
</g>
<!-- FooterModule&#45;&gt;FooterComponent  -->
<g id="edge16" class="edge"><title>FooterModule&#45;&gt;FooterComponent </title>
<path fill="none" stroke="black" stroke-dasharray="5,2" d="M1007.56,-198.011C1007.56,-198.011 1007.56,-227.855 1007.56,-227.855"/>
<polygon fill="black" stroke="black" points="1004.06,-227.855 1007.56,-237.855 1011.06,-227.855 1004.06,-227.855"/>
</g>
<!-- BrowserModule -->
<g id="node17" class="node"><title>BrowserModule</title>
<polygon fill="#8dd3c7" stroke="black" points="1139.47,-122 1136.47,-126 1115.47,-126 1112.47,-122 1032.53,-122 1032.53,-86 1139.47,-86 1139.47,-122"/>
<text text-anchor="middle" x="1086" y="-99.8" font-family="Times,serif" font-size="14.00">BrowserModule</text>
</g>
<!-- BrowserModule&#45;&gt;HomeModule -->
<g id="edge23" class="edge"><title>BrowserModule&#45;&gt;HomeModule</title>
<path fill="none" stroke="black" d="M1115.64,-122.101C1115.64,-171.333 1115.64,-304 1115.64,-304 1115.64,-304 1382.14,-304 1382.14,-304 1382.14,-304 1382.14,-304.979 1382.14,-304.979"/>
<polygon fill="black" stroke="black" points="1378.64,-303.793 1382.14,-313.793 1385.64,-303.793 1378.64,-303.793"/>
</g>
<!-- BrowserModule&#45;&gt;FooterModule -->
<g id="edge15" class="edge"><title>BrowserModule&#45;&gt;FooterModule</title>
<path fill="none" stroke="black" d="M1041.28,-122.011C1041.28,-122.011 1041.28,-151.855 1041.28,-151.855"/>
<polygon fill="black" stroke="black" points="1037.78,-151.855 1041.28,-161.855 1044.78,-151.855 1037.78,-151.855"/>
</g>
<!-- ListModule -->
<g id="node26" class="node"><title>ListModule</title>
<polygon fill="#8dd3c7" stroke="black" points="1404.83,-274 1401.83,-278 1380.83,-278 1377.83,-274 1323.17,-274 1323.17,-238 1404.83,-238 1404.83,-274"/>
<text text-anchor="middle" x="1364" y="-251.8" font-family="Times,serif" font-size="14.00">ListModule</text>
</g>
<!-- BrowserModule&#45;&gt;ListModule -->
<g id="edge33" class="edge"><title>BrowserModule&#45;&gt;ListModule</title>
<path fill="none" stroke="black" d="M1123.59,-122.064C1123.59,-154.209 1123.59,-218 1123.59,-218 1123.59,-218 1328.37,-218 1328.37,-218 1328.37,-218 1328.37,-227.89 1328.37,-227.89"/>
<polygon fill="black" stroke="black" points="1324.87,-227.89 1328.37,-237.89 1331.87,-227.89 1324.87,-227.89"/>
</g>
<!-- TodoModule -->
<g id="node29" class="node"><title>TodoModule</title>
<polygon fill="#8dd3c7" stroke="black" points="1427.6,-198 1424.6,-202 1403.6,-202 1400.6,-198 1338.4,-198 1338.4,-162 1427.6,-162 1427.6,-198"/>
<text text-anchor="middle" x="1383" y="-175.8" font-family="Times,serif" font-size="14.00">TodoModule</text>
</g>
<!-- BrowserModule&#45;&gt;TodoModule -->
<g id="edge38" class="edge"><title>BrowserModule&#45;&gt;TodoModule</title>
<path fill="none" stroke="black" d="M1131.54,-122.194C1131.54,-130.278 1131.54,-138 1131.54,-138 1131.54,-138 1353.3,-138 1353.3,-138 1353.3,-138 1353.3,-151.944 1353.3,-151.944"/>
<polygon fill="black" stroke="black" points="1349.8,-151.944 1353.3,-161.944 1356.8,-151.945 1349.8,-151.944"/>
</g>
<!-- HeaderComponent -->
<g id="node19" class="node"><title>HeaderComponent</title>
<polygon fill="#ffffb3" stroke="black" points="1928.74,-198 1807.26,-198 1807.26,-162 1928.74,-162 1928.74,-198"/>
<text text-anchor="middle" x="1868" y="-175.8" font-family="Times,serif" font-size="14.00">HeaderComponent</text>
</g>
<!-- HeaderModule -->
<g id="node20" class="node"><title>HeaderModule</title>
<polygon fill="#8dd3c7" stroke="black" points="1808.96,-274 1805.96,-278 1784.96,-278 1781.96,-274 1709.04,-274 1709.04,-238 1808.96,-238 1808.96,-274"/>
<text text-anchor="middle" x="1759" y="-251.8" font-family="Times,serif" font-size="14.00">HeaderModule</text>
</g>
<!-- HeaderComponent&#45;&gt;HeaderModule -->
<g id="edge17" class="edge"><title>HeaderComponent&#45;&gt;HeaderModule</title>
<path fill="none" stroke="black" d="M1815.3,-198.011C1815.3,-220.485 1815.3,-256 1815.3,-256 1815.3,-256 1814.7,-256 1814.7,-256"/>
<polygon fill="black" stroke="black" points="1819.28,-252.5 1809.28,-256 1819.28,-259.5 1819.28,-252.5"/>
</g>
<!-- HeaderModule&#45;&gt;HomeModule -->
<g id="edge26" class="edge"><title>HeaderModule&#45;&gt;HomeModule</title>
<path fill="none" stroke="black" d="M1742.34,-274.11C1742.34,-283.897 1742.34,-294 1742.34,-294 1742.34,-294 1453.26,-294 1453.26,-294 1453.26,-294 1453.26,-303.89 1453.26,-303.89"/>
<polygon fill="black" stroke="black" points="1449.76,-303.89 1453.26,-313.89 1456.76,-303.89 1449.76,-303.89"/>
</g>
<!-- HeaderComponent  -->
<g id="node22" class="node"><title>HeaderComponent </title>
<polygon fill="#fb8072" stroke="black" points="1821.74,-350 1696.26,-350 1696.26,-314 1821.74,-314 1821.74,-350"/>
<text text-anchor="middle" x="1759" y="-327.8" font-family="Times,serif" font-size="14.00">HeaderComponent </text>
</g>
<!-- HeaderModule&#45;&gt;HeaderComponent  -->
<g id="edge19" class="edge"><title>HeaderModule&#45;&gt;HeaderComponent </title>
<path fill="none" stroke="black" stroke-dasharray="5,2" d="M1775.66,-274.011C1775.66,-274.011 1775.66,-303.855 1775.66,-303.855"/>
<polygon fill="black" stroke="black" points="1772.16,-303.855 1775.66,-313.855 1779.16,-303.855 1772.16,-303.855"/>
</g>
<!-- FormsModule -->
<g id="node21" class="node"><title>FormsModule</title>
<polygon fill="#8dd3c7" stroke="black" points="1782.83,-198 1779.83,-202 1758.83,-202 1755.83,-198 1687.17,-198 1687.17,-162 1782.83,-162 1782.83,-198"/>
<text text-anchor="middle" x="1735" y="-175.8" font-family="Times,serif" font-size="14.00">FormsModule</text>
</g>
<!-- FormsModule&#45;&gt;HomeModule -->
<g id="edge24" class="edge"><title>FormsModule&#45;&gt;HomeModule</title>
<path fill="none" stroke="black" d="M1691.86,-198.49C1691.86,-229.589 1691.86,-289 1691.86,-289 1691.86,-289 1445.64,-289 1445.64,-289 1445.64,-289 1445.64,-303.515 1445.64,-303.515"/>
<polygon fill="black" stroke="black" points="1442.14,-303.515 1445.64,-313.515 1449.14,-303.515 1442.14,-303.515"/>
</g>
<!-- FormsModule&#45;&gt;HeaderModule -->
<g id="edge18" class="edge"><title>FormsModule&#45;&gt;HeaderModule</title>
<path fill="none" stroke="black" d="M1745.84,-198.011C1745.84,-198.011 1745.84,-227.855 1745.84,-227.855"/>
<polygon fill="black" stroke="black" points="1742.34,-227.855 1745.84,-237.855 1749.34,-227.855 1742.34,-227.855"/>
</g>
<!-- HomeRoutingModule&#45;&gt;RouterModule  -->
<g id="edge21" class="edge"><title>HomeRoutingModule&#45;&gt;RouterModule </title>
<path fill="none" stroke="black" stroke-dasharray="5,2" d="M720.305,-267C684.423,-267 648.115,-267 648.115,-267 648.115,-267 648.115,-303.894 648.115,-303.894"/>
<polygon fill="black" stroke="black" points="644.615,-303.894 648.115,-313.894 651.615,-303.894 644.615,-303.894"/>
</g>
<!-- HomeRoutingModule&#45;&gt;HomeModule -->
<g id="edge29" class="edge"><title>HomeRoutingModule&#45;&gt;HomeModule</title>
<path fill="none" stroke="black" d="M790,-274.24C790,-289.571 790,-309 790,-309 790,-309 1374.63,-309 1374.63,-309 1374.63,-309 1374.63,-309.488 1374.63,-309.488"/>
<polygon fill="black" stroke="black" points="1371.13,-303.878 1374.63,-313.878 1378.13,-303.878 1371.13,-303.878"/>
</g>
<!-- HomeComponent -->
<g id="node24" class="node"><title>HomeComponent</title>
<polygon fill="#ffffb3" stroke="black" points="1646.55,-274 1531.45,-274 1531.45,-238 1646.55,-238 1646.55,-274"/>
<text text-anchor="middle" x="1589" y="-251.8" font-family="Times,serif" font-size="14.00">HomeComponent</text>
</g>
<!-- HomeComponent&#45;&gt;HomeModule -->
<g id="edge22" class="edge"><title>HomeComponent&#45;&gt;HomeModule</title>
<path fill="none" stroke="black" d="M1560.97,-274.207C1560.97,-279.555 1560.97,-284 1560.97,-284 1560.97,-284 1438.02,-284 1438.02,-284 1438.02,-284 1438.02,-303.853 1438.02,-303.853"/>
<polygon fill="black" stroke="black" points="1434.52,-303.853 1438.02,-313.853 1441.52,-303.853 1434.52,-303.853"/>
</g>
<!-- HttpModule -->
<g id="node25" class="node"><title>HttpModule</title>
<polygon fill="#8dd3c7" stroke="black" points="1507.44,-274 1504.44,-278 1483.44,-278 1480.44,-274 1422.56,-274 1422.56,-238 1507.44,-238 1507.44,-274"/>
<text text-anchor="middle" x="1465" y="-251.8" font-family="Times,serif" font-size="14.00">HttpModule</text>
</g>
<!-- HttpModule&#45;&gt;HomeModule -->
<g id="edge25" class="edge"><title>HttpModule&#45;&gt;HomeModule</title>
<path fill="none" stroke="black" d="M1430.4,-274.011C1430.4,-274.011 1430.4,-303.855 1430.4,-303.855"/>
<polygon fill="black" stroke="black" points="1426.9,-303.855 1430.4,-313.855 1433.9,-303.855 1426.9,-303.855"/>
</g>
<!-- ListModule&#45;&gt;HomeModule -->
<g id="edge27" class="edge"><title>ListModule&#45;&gt;HomeModule</title>
<path fill="none" stroke="black" d="M1397.16,-274.011C1397.16,-274.011 1397.16,-303.855 1397.16,-303.855"/>
<polygon fill="black" stroke="black" points="1393.66,-303.855 1397.16,-313.855 1400.66,-303.855 1393.66,-303.855"/>
</g>
<!-- ListComponent  -->
<g id="node30" class="node"><title>ListComponent </title>
<polygon fill="#fb8072" stroke="black" points="1314.11,-198 1207.89,-198 1207.89,-162 1314.11,-162 1314.11,-198"/>
<text text-anchor="middle" x="1261" y="-175.8" font-family="Times,serif" font-size="14.00">ListComponent </text>
</g>
<!-- ListModule&#45;&gt;ListComponent  -->
<g id="edge34" class="edge"><title>ListModule&#45;&gt;ListComponent </title>
<path fill="none" stroke="black" stroke-dasharray="5,2" d="M1333.41,-237.989C1333.41,-215.515 1333.41,-180 1333.41,-180 1333.41,-180 1324.39,-180 1324.39,-180"/>
<polygon fill="black" stroke="black" points="1324.39,-176.5 1314.39,-180 1324.39,-183.5 1324.39,-176.5"/>
</g>
<!-- ListComponent -->
<g id="node28" class="node"><title>ListComponent</title>
<polygon fill="#ffffb3" stroke="black" points="1555.61,-198 1452.39,-198 1452.39,-162 1555.61,-162 1555.61,-198"/>
<text text-anchor="middle" x="1504" y="-175.8" font-family="Times,serif" font-size="14.00">ListComponent</text>
</g>
<!-- ListComponent&#45;&gt;ListModule -->
<g id="edge31" class="edge"><title>ListComponent&#45;&gt;ListModule</title>
<path fill="none" stroke="black" d="M1479.83,-198.147C1479.83,-211.74 1479.83,-228 1479.83,-228 1479.83,-228 1382.59,-228 1382.59,-228 1382.59,-228 1382.59,-228.979 1382.59,-228.979"/>
<polygon fill="black" stroke="black" points="1379.09,-227.793 1382.59,-237.793 1386.09,-227.793 1379.09,-227.793"/>
</g>
<!-- TodoModule&#45;&gt;ListModule -->
<g id="edge32" class="edge"><title>TodoModule&#45;&gt;ListModule</title>
<path fill="none" stroke="black" d="M1360.52,-198.011C1360.52,-198.011 1360.52,-227.855 1360.52,-227.855"/>
<polygon fill="black" stroke="black" points="1357.02,-227.855 1360.52,-237.855 1364.02,-227.855 1357.02,-227.855"/>
</g>
<!-- TodoComponent  -->
<g id="node34" class="node"><title>TodoComponent </title>
<polygon fill="#fb8072" stroke="black" points="1293.39,-122 1178.61,-122 1178.61,-86 1293.39,-86 1293.39,-122"/>
<text text-anchor="middle" x="1236" y="-99.8" font-family="Times,serif" font-size="14.00">TodoComponent </text>
</g>
<!-- TodoModule&#45;&gt;TodoComponent  -->
<g id="edge39" class="edge"><title>TodoModule&#45;&gt;TodoComponent </title>
<path fill="none" stroke="black" stroke-dasharray="5,2" d="M1368.15,-161.949C1368.15,-147.627 1368.15,-130 1368.15,-130 1368.15,-130 1250.44,-130 1250.44,-130 1250.44,-130 1250.44,-129.206 1250.44,-129.206"/>
<polygon fill="black" stroke="black" points="1253.94,-132.058 1250.44,-122.058 1246.94,-132.058 1253.94,-132.058"/>
</g>
<!-- TodoComponent -->
<g id="node31" class="node"><title>TodoComponent</title>
<polygon fill="#ffffb3" stroke="black" points="1696.39,-122 1585.61,-122 1585.61,-86 1696.39,-86 1696.39,-122"/>
<text text-anchor="middle" x="1641" y="-99.8" font-family="Times,serif" font-size="14.00">TodoComponent</text>
</g>
<!-- TodoComponent&#45;&gt;TodoModule -->
<g id="edge35" class="edge"><title>TodoComponent&#45;&gt;TodoModule</title>
<path fill="none" stroke="black" d="M1616.16,-122.051C1616.16,-136.373 1616.16,-154 1616.16,-154 1616.16,-154 1412.7,-154 1412.7,-154 1412.7,-154 1412.7,-154.794 1412.7,-154.794"/>
<polygon fill="black" stroke="black" points="1409.2,-151.942 1412.7,-161.942 1416.2,-151.942 1409.2,-151.942"/>
</g>
<!-- FirstUpperPipe -->
<g id="node32" class="node"><title>FirstUpperPipe</title>
<polygon fill="#ffffb3" stroke="black" points="1567.54,-122 1466.46,-122 1466.46,-86 1567.54,-86 1567.54,-122"/>
<text text-anchor="middle" x="1517" y="-99.8" font-family="Times,serif" font-size="14.00">FirstUpperPipe</text>
</g>
<!-- FirstUpperPipe&#45;&gt;TodoModule -->
<g id="edge36" class="edge"><title>FirstUpperPipe&#45;&gt;TodoModule</title>
<path fill="none" stroke="black" d="M1510.89,-122.056C1510.89,-133.439 1510.89,-146 1510.89,-146 1510.89,-146 1397.85,-146 1397.85,-146 1397.85,-146 1397.85,-151.806 1397.85,-151.806"/>
<polygon fill="black" stroke="black" points="1394.35,-151.806 1397.85,-161.806 1401.35,-151.806 1394.35,-151.806"/>
</g>
<!-- DoNothingDirective -->
<g id="node33" class="node"><title>DoNothingDirective</title>
<polygon fill="#ffffb3" stroke="black" points="1448.58,-122 1317.42,-122 1317.42,-86 1448.58,-86 1448.58,-122"/>
<text text-anchor="middle" x="1383" y="-99.8" font-family="Times,serif" font-size="14.00">DoNothingDirective</text>
</g>
<!-- DoNothingDirective&#45;&gt;TodoModule -->
<g id="edge37" class="edge"><title>DoNothingDirective&#45;&gt;TodoModule</title>
<path fill="none" stroke="black" d="M1383,-122.011C1383,-122.011 1383,-151.855 1383,-151.855"/>
<polygon fill="black" stroke="black" points="1379.5,-151.855 1383,-161.855 1386.5,-151.855 1379.5,-151.855"/>
</g>
</g>
</svg>
