<?xml version="1.0" encoding="UTF-8" standalone="no"?>
<!DOCTYPE svg PUBLIC "-//W3C//DTD SVG 1.1//EN"
 "http://www.w3.org/Graphics/SVG/1.1/DTD/svg11.dtd">
<!-- Generated by graphviz version 2.38.0 (20140413.2041)
 -->
<!-- Title: dependencies Pages: 1 -->
<svg width="554pt" height="284pt"
 viewBox="0.00 0.00 554.00 284.00" xmlns="http://www.w3.org/2000/svg" xmlns:xlink="http://www.w3.org/1999/xlink">
<g id="graph0" class="graph" transform="scale(1 1) rotate(0) translate(4 280)">
<title>dependencies</title>
<polygon fill="white" stroke="none" points="-4,4 -4,-280 550,-280 550,4 -4,4"/>
<text text-anchor="start" x="252.009" y="-42.4" font-family="sans-serif" font-weight="bold" font-size="14.00">Legend</text>
<polygon fill="#ffffb3" stroke="none" points="39,-10 39,-30 59,-30 59,-10 39,-10"/>
<text text-anchor="start" x="62.629" y="-15.4" font-family="sans-serif" font-size="14.00"> &#160;Declarations</text>
<polygon fill="#8dd3c7" stroke="none" points="152,-10 152,-30 172,-30 172,-10 152,-10"/>
<text text-anchor="start" x="175.725" y="-15.4" font-family="sans-serif" font-size="14.00"> &#160;Module</text>
<polygon fill="#80b1d3" stroke="none" points="238,-10 238,-30 258,-30 258,-10 238,-10"/>
<text text-anchor="start" x="261.781" y="-15.4" font-family="sans-serif" font-size="14.00"> &#160;Bootstrap</text>
<polygon fill="#fdb462" stroke="none" points="335,-10 335,-30 355,-30 355,-10 335,-10"/>
<text text-anchor="start" x="358.673" y="-15.4" font-family="sans-serif" font-size="14.00"> &#160;Providers</text>
<polygon fill="#fb8072" stroke="none" points="431,-10 431,-30 451,-30 451,-10 431,-10"/>
<text text-anchor="start" x="454.726" y="-15.4" font-family="sans-serif" font-size="14.00"> &#160;Exports</text>
<g id="clust1" class="cluster"><title>cluster_AppModule</title>
<polygon fill="none" stroke="black" stroke-dasharray="1,5" points="8,-70 8,-268 538,-268 538,-70 8,-70"/>
</g>
<g id="clust2" class="cluster"><title>cluster_AppModule_declarations</title>
<polygon fill="none" stroke="black" points="408,-78 408,-130 530,-130 530,-78 408,-78"/>
</g>
<g id="clust4" class="cluster"><title>cluster_AppModule_imports</title>
<polygon fill="none" stroke="black" points="144,-78 144,-130 400,-130 400,-78 144,-78"/>
</g>
<g id="clust6" class="cluster"><title>cluster_AppModule_bootstrap</title>
<polygon fill="none" stroke="black" points="218,-208 218,-260 342,-260 342,-208 218,-208"/>
</g>
<g id="clust7" class="cluster"><title>cluster_AppModule_providers</title>
<polygon fill="none" stroke="black" points="16,-78 16,-130 136,-130 136,-78 16,-78"/>
</g>
<!-- AppComponent -->
<g id="node1" class="node"><title>AppComponent</title>
<polygon fill="#ffffb3" stroke="black" points="521.94,-122 416.06,-122 416.06,-86 521.94,-86 521.94,-122"/>
<text text-anchor="middle" x="469" y="-99.8" font-family="Times,serif" font-size="14.00">AppComponent</text>
</g>
<!-- AppModule -->
<g id="node2" class="node"><title>AppModule</title>
<polygon fill="#8dd3c7" stroke="black" points="321.657,-187 318.657,-191 297.657,-191 294.657,-187 238.343,-187 238.343,-151 321.657,-151 321.657,-187"/>
<text text-anchor="middle" x="280" y="-164.8" font-family="Times,serif" font-size="14.00">AppModule</text>
</g>
<!-- AppComponent&#45;&gt;AppModule -->
<g id="edge1" class="edge"><title>AppComponent&#45;&gt;AppModule</title>
<path fill="none" stroke="black" d="M469,-122.106C469,-141.339 469,-169 469,-169 469,-169 331.945,-169 331.945,-169"/>
<polygon fill="black" stroke="black" points="331.945,-165.5 321.945,-169 331.945,-172.5 331.945,-165.5"/>
</g>
<!-- AppComponent  -->
<g id="node5" class="node"><title>AppComponent </title>
<polygon fill="#80b1d3" stroke="black" points="334.439,-252 225.561,-252 225.561,-216 334.439,-216 334.439,-252"/>
<text text-anchor="middle" x="280" y="-229.8" font-family="Times,serif" font-size="14.00">AppComponent </text>
</g>
<!-- AppModule&#45;&gt;AppComponent  -->
<g id="edge4" class="edge"><title>AppModule&#45;&gt;AppComponent </title>
<path fill="none" stroke="black" stroke-dasharray="1,5" d="M280,-187.106C280,-187.106 280,-205.991 280,-205.991"/>
<polygon fill="black" stroke="black" points="276.5,-205.991 280,-215.991 283.5,-205.991 276.5,-205.991"/>
</g>
<!-- HomeModule -->
<g id="node3" class="node"><title>HomeModule</title>
<polygon fill="#8dd3c7" stroke="black" points="391.762,-122 388.762,-126 367.762,-126 364.762,-122 298.238,-122 298.238,-86 391.762,-86 391.762,-122"/>
<text text-anchor="middle" x="345" y="-99.8" font-family="Times,serif" font-size="14.00">HomeModule</text>
</g>
<!-- HomeModule&#45;&gt;AppModule -->
<g id="edge2" class="edge"><title>HomeModule&#45;&gt;AppModule</title>
<path fill="none" stroke="black" d="M309.974,-122.106C309.974,-122.106 309.974,-140.991 309.974,-140.991"/>
<polygon fill="black" stroke="black" points="306.474,-140.991 309.974,-150.991 313.474,-140.991 306.474,-140.991"/>
</g>
<!-- AppRoutingModule -->
<g id="node4" class="node"><title>AppRoutingModule</title>
<polygon fill="#8dd3c7" stroke="black" points="280.274,-122 277.274,-126 256.274,-126 253.274,-122 151.726,-122 151.726,-86 280.274,-86 280.274,-122"/>
<text text-anchor="middle" x="216" y="-99.8" font-family="Times,serif" font-size="14.00">AppRoutingModule</text>
</g>
<!-- AppRoutingModule&#45;&gt;AppModule -->
<g id="edge3" class="edge"><title>AppRoutingModule&#45;&gt;AppModule</title>
<path fill="none" stroke="black" d="M259.279,-122.106C259.279,-122.106 259.279,-140.991 259.279,-140.991"/>
<polygon fill="black" stroke="black" points="255.78,-140.991 259.279,-150.991 262.78,-140.991 255.78,-140.991"/>
</g>
<!-- TodoStore -->
<g id="node6" class="node"><title>TodoStore</title>
<ellipse fill="#fdb462" stroke="black" cx="76" cy="-104" rx="51.6073" ry="18"/>
<text text-anchor="middle" x="76" y="-99.8" font-family="Times,serif" font-size="14.00">TodoStore</text>
</g>
<!-- TodoStore&#45;&gt;AppModule -->
<g id="edge5" class="edge"><title>TodoStore&#45;&gt;AppModule</title>
<path fill="none" stroke="black" d="M76,-122.106C76,-141.339 76,-169 76,-169 76,-169 228.225,-169 228.225,-169"/>
<polygon fill="black" stroke="black" points="228.225,-172.5 238.225,-169 228.225,-165.5 228.225,-172.5"/>
</g>
</g>
</svg>
