<?xml version="1.0" encoding="UTF-8" standalone="no"?>
<!DOCTYPE svg PUBLIC "-//W3C//DTD SVG 1.1//EN"
 "http://www.w3.org/Graphics/SVG/1.1/DTD/svg11.dtd">
<!-- Generated by graphviz version 2.38.0 (20140413.2041)
 -->
<!-- Title: dependencies Pages: 1 -->
<svg width="504pt" height="284pt"
 viewBox="0.00 0.00 504.00 284.00" xmlns="http://www.w3.org/2000/svg" xmlns:xlink="http://www.w3.org/1999/xlink">
<g id="graph0" class="graph" transform="scale(1 1) rotate(0) translate(4 280)">
<title>dependencies</title>
<polygon fill="white" stroke="none" points="-4,4 -4,-280 500,-280 500,4 -4,4"/>
<text text-anchor="start" x="227.009" y="-42.4" font-family="sans-serif" font-weight="bold" font-size="14.00">Legend</text>
<polygon fill="#ffffb3" stroke="none" points="14,-10 14,-30 34,-30 34,-10 14,-10"/>
<text text-anchor="start" x="37.629" y="-15.4" font-family="sans-serif" font-size="14.00"> &#160;Declarations</text>
<polygon fill="#8dd3c7" stroke="none" points="127,-10 127,-30 147,-30 147,-10 127,-10"/>
<text text-anchor="start" x="150.725" y="-15.4" font-family="sans-serif" font-size="14.00"> &#160;Module</text>
<polygon fill="#80b1d3" stroke="none" points="213,-10 213,-30 233,-30 233,-10 213,-10"/>
<text text-anchor="start" x="236.781" y="-15.4" font-family="sans-serif" font-size="14.00"> &#160;Bootstrap</text>
<polygon fill="#fdb462" stroke="none" points="310,-10 310,-30 330,-30 330,-10 310,-10"/>
<text text-anchor="start" x="333.673" y="-15.4" font-family="sans-serif" font-size="14.00"> &#160;Providers</text>
<polygon fill="#fb8072" stroke="none" points="406,-10 406,-30 426,-30 426,-10 406,-10"/>
<text text-anchor="start" x="429.726" y="-15.4" font-family="sans-serif" font-size="14.00"> &#160;Exports</text>
<g id="clust1" class="cluster"><title>cluster_ListModule</title>
<polygon fill="none" stroke="black" stroke-dasharray="1,5" points="61,-70 61,-268 435,-268 435,-70 61,-70"/>
</g>
<g id="clust2" class="cluster"><title>cluster_ListModule_declarations</title>
<polygon fill="none" stroke="black" points="307,-78 307,-130 427,-130 427,-78 307,-78"/>
</g>
<g id="clust4" class="cluster"><title>cluster_ListModule_imports</title>
<polygon fill="none" stroke="black" points="69,-78 69,-130 299,-130 299,-78 69,-78"/>
</g>
<g id="clust5" class="cluster"><title>cluster_ListModule_exports</title>
<polygon fill="none" stroke="black" points="185,-208 185,-260 307,-260 307,-208 185,-208"/>
</g>
<!-- ListComponent -->
<g id="node1" class="node"><title>ListComponent</title>
<polygon fill="#ffffb3" stroke="black" points="418.611,-122 315.389,-122 315.389,-86 418.611,-86 418.611,-122"/>
<text text-anchor="middle" x="367" y="-99.8" font-family="Times,serif" font-size="14.00">ListComponent</text>
</g>
<!-- ListModule -->
<g id="node2" class="node"><title>ListModule</title>
<polygon fill="#8dd3c7" stroke="black" points="286.829,-187 283.829,-191 262.829,-191 259.829,-187 205.171,-187 205.171,-151 286.829,-151 286.829,-187"/>
<text text-anchor="middle" x="246" y="-164.8" font-family="Times,serif" font-size="14.00">ListModule</text>
</g>
<!-- ListComponent&#45;&gt;ListModule -->
<g id="edge1" class="edge"><title>ListComponent&#45;&gt;ListModule</title>
<path fill="none" stroke="black" d="M367,-122.106C367,-141.339 367,-169 367,-169 367,-169 296.965,-169 296.965,-169"/>
<polygon fill="black" stroke="black" points="296.965,-165.5 286.965,-169 296.965,-172.5 296.965,-165.5"/>
</g>
<!-- ListComponent  -->
<g id="node5" class="node"><title>ListComponent </title>
<polygon fill="#fb8072" stroke="black" points="299.112,-252 192.888,-252 192.888,-216 299.112,-216 299.112,-252"/>
<text text-anchor="middle" x="246" y="-229.8" font-family="Times,serif" font-size="14.00">ListComponent </text>
</g>
<!-- ListModule&#45;&gt;ListComponent  -->
<g id="edge4" class="edge"><title>ListModule&#45;&gt;ListComponent </title>
<path fill="none" stroke="black" stroke-dasharray="5,2" d="M246,-187.106C246,-187.106 246,-205.991 246,-205.991"/>
<polygon fill="black" stroke="black" points="242.5,-205.991 246,-215.991 249.5,-205.991 242.5,-205.991"/>
</g>
<!-- TodoModule -->
<g id="node3" class="node"><title>TodoModule</title>
<polygon fill="#8dd3c7" stroke="black" points="290.602,-122 287.602,-126 266.602,-126 263.602,-122 201.398,-122 201.398,-86 290.602,-86 290.602,-122"/>
<text text-anchor="middle" x="246" y="-99.8" font-family="Times,serif" font-size="14.00">TodoModule</text>
</g>
<!-- TodoModule&#45;&gt;ListModule -->
<g id="edge2" class="edge"><title>TodoModule&#45;&gt;ListModule</title>
<path fill="none" stroke="black" d="M246,-122.106C246,-122.106 246,-140.991 246,-140.991"/>
<polygon fill="black" stroke="black" points="242.5,-140.991 246,-150.991 249.5,-140.991 242.5,-140.991"/>
</g>
<!-- BrowserModule -->
<g id="node4" class="node"><title>BrowserModule</title>
<polygon fill="#8dd3c7" stroke="black" points="183.473,-122 180.473,-126 159.473,-126 156.473,-122 76.5266,-122 76.5266,-86 183.473,-86 183.473,-122"/>
<text text-anchor="middle" x="130" y="-99.8" font-family="Times,serif" font-size="14.00">BrowserModule</text>
</g>
<!-- BrowserModule&#45;&gt;ListModule -->
<g id="edge3" class="edge"><title>BrowserModule&#45;&gt;ListModule</title>
<path fill="none" stroke="black" d="M130,-122.106C130,-141.339 130,-169 130,-169 130,-169 195.103,-169 195.103,-169"/>
<polygon fill="black" stroke="black" points="195.103,-172.5 205.103,-169 195.103,-165.5 195.103,-172.5"/>
</g>
</g>
</svg>
