<?xml version="1.0" encoding="UTF-8" standalone="no"?>
<!DOCTYPE svg PUBLIC "-//W3C//DTD SVG 1.1//EN"
 "http://www.w3.org/Graphics/SVG/1.1/DTD/svg11.dtd">
<!-- Generated by graphviz version 2.38.0 (20140413.2041)
 -->
<!-- Title: dependencies Pages: 1 -->
<svg width="504pt" height="284pt"
 viewBox="0.00 0.00 504.00 284.00" xmlns="http://www.w3.org/2000/svg" xmlns:xlink="http://www.w3.org/1999/xlink">
<g id="graph0" class="graph" transform="scale(1 1) rotate(0) translate(4 280)">
<title>dependencies</title>
<polygon fill="white" stroke="none" points="-4,4 -4,-280 500,-280 500,4 -4,4"/>
<text text-anchor="start" x="227.009" y="-42.4" font-family="sans-serif" font-weight="bold" font-size="14.00">Legend</text>
<polygon fill="#ffffb3" stroke="none" points="14,-10 14,-30 34,-30 34,-10 14,-10"/>
<text text-anchor="start" x="37.629" y="-15.4" font-family="sans-serif" font-size="14.00"> &#160;Declarations</text>
<polygon fill="#8dd3c7" stroke="none" points="127,-10 127,-30 147,-30 147,-10 127,-10"/>
<text text-anchor="start" x="150.725" y="-15.4" font-family="sans-serif" font-size="14.00"> &#160;Module</text>
<polygon fill="#80b1d3" stroke="none" points="213,-10 213,-30 233,-30 233,-10 213,-10"/>
<text text-anchor="start" x="236.781" y="-15.4" font-family="sans-serif" font-size="14.00"> &#160;Bootstrap</text>
<polygon fill="#fdb462" stroke="none" points="310,-10 310,-30 330,-30 330,-10 310,-10"/>
<text text-anchor="start" x="333.673" y="-15.4" font-family="sans-serif" font-size="14.00"> &#160;Providers</text>
<polygon fill="#fb8072" stroke="none" points="406,-10 406,-30 426,-30 426,-10 406,-10"/>
<text text-anchor="start" x="429.726" y="-15.4" font-family="sans-serif" font-size="14.00"> &#160;Exports</text>
<g id="clust1" class="cluster"><title>cluster_FooterModule</title>
<polygon fill="none" stroke="black" stroke-dasharray="1,5" points="108,-70 108,-268 388,-268 388,-70 108,-70"/>
</g>
<g id="clust2" class="cluster"><title>cluster_FooterModule_declarations</title>
<polygon fill="none" stroke="black" points="246,-78 246,-130 380,-130 380,-78 246,-78"/>
</g>
<g id="clust4" class="cluster"><title>cluster_FooterModule_imports</title>
<polygon fill="none" stroke="black" points="116,-78 116,-130 238,-130 238,-78 116,-78"/>
</g>
<g id="clust5" class="cluster"><title>cluster_FooterModule_exports</title>
<polygon fill="none" stroke="black" points="179,-208 179,-260 317,-260 317,-208 179,-208"/>
</g>
<!-- FooterComponent -->
<g id="node1" class="node"><title>FooterComponent</title>
<polygon fill="#ffffb3" stroke="black" points="371.881,-122 254.119,-122 254.119,-86 371.881,-86 371.881,-122"/>
<text text-anchor="middle" x="313" y="-99.8" font-family="Times,serif" font-size="14.00">FooterComponent</text>
</g>
<!-- FooterModule -->
<g id="node2" class="node"><title>FooterModule</title>
<polygon fill="#8dd3c7" stroke="black" points="296.098,-187 293.098,-191 272.098,-191 269.098,-187 199.902,-187 199.902,-151 296.098,-151 296.098,-187"/>
<text text-anchor="middle" x="248" y="-164.8" font-family="Times,serif" font-size="14.00">FooterModule</text>
</g>
<!-- FooterComponent&#45;&gt;FooterModule -->
<g id="edge1" class="edge"><title>FooterComponent&#45;&gt;FooterModule</title>
<path fill="none" stroke="black" d="M275.054,-122.106C275.054,-122.106 275.054,-140.991 275.054,-140.991"/>
<polygon fill="black" stroke="black" points="271.554,-140.991 275.054,-150.991 278.554,-140.991 271.554,-140.991"/>
</g>
<!-- FooterComponent  -->
<g id="node4" class="node"><title>FooterComponent </title>
<polygon fill="#fb8072" stroke="black" points="308.881,-252 187.119,-252 187.119,-216 308.881,-216 308.881,-252"/>
<text text-anchor="middle" x="248" y="-229.8" font-family="Times,serif" font-size="14.00">FooterComponent </text>
</g>
<!-- FooterModule&#45;&gt;FooterComponent  -->
<g id="edge3" class="edge"><title>FooterModule&#45;&gt;FooterComponent </title>
<path fill="none" stroke="black" stroke-dasharray="5,2" d="M248,-187.106C248,-187.106 248,-205.991 248,-205.991"/>
<polygon fill="black" stroke="black" points="244.5,-205.991 248,-215.991 251.5,-205.991 244.5,-205.991"/>
</g>
<!-- BrowserModule -->
<g id="node3" class="node"><title>BrowserModule</title>
<polygon fill="#8dd3c7" stroke="black" points="230.473,-122 227.473,-126 206.473,-126 203.473,-122 123.527,-122 123.527,-86 230.473,-86 230.473,-122"/>
<text text-anchor="middle" x="177" y="-99.8" font-family="Times,serif" font-size="14.00">BrowserModule</text>
</g>
<!-- BrowserModule&#45;&gt;FooterModule -->
<g id="edge2" class="edge"><title>BrowserModule&#45;&gt;FooterModule</title>
<path fill="none" stroke="black" d="M215.219,-122.106C215.219,-122.106 215.219,-140.991 215.219,-140.991"/>
<polygon fill="black" stroke="black" points="211.719,-140.991 215.219,-150.991 218.719,-140.991 211.719,-140.991"/>
</g>
</g>
</svg>
