<?xml version="1.0" encoding="UTF-8" standalone="no"?>
<!DOCTYPE svg PUBLIC "-//W3C//DTD SVG 1.1//EN"
 "http://www.w3.org/Graphics/SVG/1.1/DTD/svg11.dtd">
<!-- Generated by graphviz version 2.38.0 (20140413.2041)
 -->
<!-- Title: dependencies Pages: 1 -->
<svg width="565pt" height="284pt"
 viewBox="0.00 0.00 565.00 284.00" xmlns="http://www.w3.org/2000/svg" xmlns:xlink="http://www.w3.org/1999/xlink">
<g id="graph0" class="graph" transform="scale(1 1) rotate(0) translate(4 280)">
<title>dependencies</title>
<polygon fill="white" stroke="none" points="-4,4 -4,-280 561,-280 561,4 -4,4"/>
<text text-anchor="start" x="257.509" y="-42.4" font-family="sans-serif" font-weight="bold" font-size="14.00">Legend</text>
<polygon fill="#ffffb3" stroke="none" points="44.5,-10 44.5,-30 64.5,-30 64.5,-10 44.5,-10"/>
<text text-anchor="start" x="68.129" y="-15.4" font-family="sans-serif" font-size="14.00"> &#160;Declarations</text>
<polygon fill="#8dd3c7" stroke="none" points="157.5,-10 157.5,-30 177.5,-30 177.5,-10 157.5,-10"/>
<text text-anchor="start" x="181.225" y="-15.4" font-family="sans-serif" font-size="14.00"> &#160;Module</text>
<polygon fill="#80b1d3" stroke="none" points="243.5,-10 243.5,-30 263.5,-30 263.5,-10 243.5,-10"/>
<text text-anchor="start" x="267.281" y="-15.4" font-family="sans-serif" font-size="14.00"> &#160;Bootstrap</text>
<polygon fill="#fdb462" stroke="none" points="340.5,-10 340.5,-30 360.5,-30 360.5,-10 340.5,-10"/>
<text text-anchor="start" x="364.173" y="-15.4" font-family="sans-serif" font-size="14.00"> &#160;Providers</text>
<polygon fill="#fb8072" stroke="none" points="436.5,-10 436.5,-30 456.5,-30 456.5,-10 436.5,-10"/>
<text text-anchor="start" x="460.226" y="-15.4" font-family="sans-serif" font-size="14.00"> &#160;Exports</text>
<g id="clust1" class="cluster"><title>cluster_TodoModule</title>
<polygon fill="none" stroke="black" stroke-dasharray="1,5" points="8,-70 8,-268 549,-268 549,-70 8,-70"/>
</g>
<g id="clust2" class="cluster"><title>cluster_TodoModule_declarations</title>
<polygon fill="none" stroke="black" points="146,-78 146,-130 541,-130 541,-78 146,-78"/>
</g>
<g id="clust6" class="cluster"><title>cluster_TodoModule_imports</title>
<polygon fill="none" stroke="black" points="16,-78 16,-130 138,-130 138,-78 16,-78"/>
</g>
<g id="clust7" class="cluster"><title>cluster_TodoModule_exports</title>
<polygon fill="none" stroke="black" points="222,-208 222,-260 352,-260 352,-208 222,-208"/>
</g>
<!-- TodoComponent -->
<g id="node1" class="node"><title>TodoComponent</title>
<polygon fill="#ffffb3" stroke="black" points="533.385,-122 422.615,-122 422.615,-86 533.385,-86 533.385,-122"/>
<text text-anchor="middle" x="478" y="-99.8" font-family="Times,serif" font-size="14.00">TodoComponent</text>
</g>
<!-- TodoModule -->
<g id="node4" class="node"><title>TodoModule</title>
<polygon fill="#8dd3c7" stroke="black" points="331.602,-187 328.602,-191 307.602,-191 304.602,-187 242.398,-187 242.398,-151 331.602,-151 331.602,-187"/>
<text text-anchor="middle" x="287" y="-164.8" font-family="Times,serif" font-size="14.00">TodoModule</text>
</g>
<!-- TodoComponent&#45;&gt;TodoModule -->
<g id="edge1" class="edge"><title>TodoComponent&#45;&gt;TodoModule</title>
<path fill="none" stroke="black" d="M478,-122.106C478,-141.339 478,-169 478,-169 478,-169 341.781,-169 341.781,-169"/>
<polygon fill="black" stroke="black" points="341.781,-165.5 331.781,-169 341.781,-172.5 341.781,-165.5"/>
</g>
<!-- FirstUpperPipe -->
<g id="node2" class="node"><title>FirstUpperPipe</title>
<polygon fill="#ffffb3" stroke="black" points="404.54,-122 303.46,-122 303.46,-86 404.54,-86 404.54,-122"/>
<text text-anchor="middle" x="354" y="-99.8" font-family="Times,serif" font-size="14.00">FirstUpperPipe</text>
</g>
<!-- FirstUpperPipe&#45;&gt;TodoModule -->
<g id="edge2" class="edge"><title>FirstUpperPipe&#45;&gt;TodoModule</title>
<path fill="none" stroke="black" d="M317.391,-122.106C317.391,-122.106 317.391,-140.991 317.391,-140.991"/>
<polygon fill="black" stroke="black" points="313.891,-140.991 317.391,-150.991 320.891,-140.991 313.891,-140.991"/>
</g>
<!-- DoNothingDirective -->
<g id="node3" class="node"><title>DoNothingDirective</title>
<polygon fill="#ffffb3" stroke="black" points="285.577,-122 154.423,-122 154.423,-86 285.577,-86 285.577,-122"/>
<text text-anchor="middle" x="220" y="-99.8" font-family="Times,serif" font-size="14.00">DoNothingDirective</text>
</g>
<!-- DoNothingDirective&#45;&gt;TodoModule -->
<g id="edge3" class="edge"><title>DoNothingDirective&#45;&gt;TodoModule</title>
<path fill="none" stroke="black" d="M263.994,-122.106C263.994,-122.106 263.994,-140.991 263.994,-140.991"/>
<polygon fill="black" stroke="black" points="260.494,-140.991 263.994,-150.991 267.494,-140.991 260.494,-140.991"/>
</g>
<!-- TodoComponent  -->
<g id="node6" class="node"><title>TodoComponent </title>
<polygon fill="#fb8072" stroke="black" points="344.386,-252 229.614,-252 229.614,-216 344.386,-216 344.386,-252"/>
<text text-anchor="middle" x="287" y="-229.8" font-family="Times,serif" font-size="14.00">TodoComponent </text>
</g>
<!-- TodoModule&#45;&gt;TodoComponent  -->
<g id="edge5" class="edge"><title>TodoModule&#45;&gt;TodoComponent </title>
<path fill="none" stroke="black" stroke-dasharray="5,2" d="M287,-187.106C287,-187.106 287,-205.991 287,-205.991"/>
<polygon fill="black" stroke="black" points="283.5,-205.991 287,-215.991 290.5,-205.991 283.5,-205.991"/>
</g>
<!-- BrowserModule -->
<g id="node5" class="node"><title>BrowserModule</title>
<polygon fill="#8dd3c7" stroke="black" points="130.473,-122 127.473,-126 106.473,-126 103.473,-122 23.5266,-122 23.5266,-86 130.473,-86 130.473,-122"/>
<text text-anchor="middle" x="77" y="-99.8" font-family="Times,serif" font-size="14.00">BrowserModule</text>
</g>
<!-- BrowserModule&#45;&gt;TodoModule -->
<g id="edge4" class="edge"><title>BrowserModule&#45;&gt;TodoModule</title>
<path fill="none" stroke="black" d="M77,-122.106C77,-141.339 77,-169 77,-169 77,-169 232.207,-169 232.207,-169"/>
<polygon fill="black" stroke="black" points="232.207,-172.5 242.207,-169 232.207,-165.5 232.207,-172.5"/>
</g>
</g>
</svg>
