<?xml version="1.0" encoding="UTF-8" standalone="no"?>
<!DOCTYPE svg PUBLIC "-//W3C//DTD SVG 1.1//EN"
 "http://www.w3.org/Graphics/SVG/1.1/DTD/svg11.dtd">
<!-- Generated by graphviz version 2.38.0 (20140413.2041)
 -->
<!-- Title: dependencies Pages: 1 -->
<svg width="565pt" height="284pt"
 viewBox="0.00 0.00 565.00 284.00" xmlns="http://www.w3.org/2000/svg" xmlns:xlink="http://www.w3.org/1999/xlink">
<g id="graph0" class="graph" transform="scale(1 1) rotate(0) translate(4 280)">
<title>dependencies</title>
<polygon fill="white" stroke="none" points="-4,4 -4,-280 561,-280 561,4 -4,4"/>
<text text-anchor="start" x="257.509" y="-42.4" font-family="sans-serif" font-weight="bold" font-size="14.00">Legend</text>
<polygon fill="#ffffb3" stroke="none" points="44.5,-10 44.5,-30 64.5,-30 64.5,-10 44.5,-10"/>
<text text-anchor="start" x="68.129" y="-15.4" font-family="sans-serif" font-size="14.00"> &#160;Declarations</text>
<polygon fill="#8dd3c7" stroke="none" points="157.5,-10 157.5,-30 177.5,-30 177.5,-10 157.5,-10"/>
<text text-anchor="start" x="181.225" y="-15.4" font-family="sans-serif" font-size="14.00"> &#160;Module</text>
<polygon fill="#80b1d3" stroke="none" points="243.5,-10 243.5,-30 263.5,-30 263.5,-10 243.5,-10"/>
<text text-anchor="start" x="267.281" y="-15.4" font-family="sans-serif" font-size="14.00"> &#160;Bootstrap</text>
<polygon fill="#fdb462" stroke="none" points="340.5,-10 340.5,-30 360.5,-30 360.5,-10 340.5,-10"/>
<text text-anchor="start" x="364.173" y="-15.4" font-family="sans-serif" font-size="14.00"> &#160;Providers</text>
<polygon fill="#fb8072" stroke="none" points="436.5,-10 436.5,-30 456.5,-30 456.5,-10 436.5,-10"/>
<text text-anchor="start" x="460.226" y="-15.4" font-family="sans-serif" font-size="14.00"> &#160;Exports</text>
<g id="clust1" class="cluster"><title>cluster_AboutRoutingModule</title>
<polygon fill="none" stroke="black" stroke-dasharray="1,5" points="8,-70 8,-268 549,-268 549,-70 8,-70"/>
</g>
<g id="clust2" class="cluster"><title>cluster_AboutRoutingModule_declarations</title>
<polygon fill="none" stroke="black" points="222,-78 222,-130 541,-130 541,-78 222,-78"/>
</g>
<g id="clust5" class="cluster"><title>cluster_AboutRoutingModule_imports</title>
<polygon fill="none" stroke="black" points="16,-78 16,-130 214,-130 214,-78 16,-78"/>
</g>
<g id="clust6" class="cluster"><title>cluster_AboutRoutingModule_exports</title>
<polygon fill="none" stroke="black" points="242,-208 242,-260 360,-260 360,-208 242,-208"/>
</g>
<!-- TodoMVCComponent -->
<g id="node1" class="node"><title>TodoMVCComponent</title>
<polygon fill="#ffffb3" stroke="black" points="533.273,-122 390.727,-122 390.727,-86 533.273,-86 533.273,-122"/>
<text text-anchor="middle" x="462" y="-99.8" font-family="Times,serif" font-size="14.00">TodoMVCComponent</text>
</g>
<!-- AboutRoutingModule -->
<g id="node3" class="node"><title>AboutRoutingModule</title>
<polygon fill="#8dd3c7" stroke="black" points="370.665,-187 367.665,-191 346.665,-191 343.665,-187 231.335,-187 231.335,-151 370.665,-151 370.665,-187"/>
<text text-anchor="middle" x="301" y="-164.8" font-family="Times,serif" font-size="14.00">AboutRoutingModule</text>
</g>
<!-- TodoMVCComponent&#45;&gt;AboutRoutingModule -->
<g id="edge1" class="edge"><title>TodoMVCComponent&#45;&gt;AboutRoutingModule</title>
<path fill="none" stroke="black" d="M462,-122.106C462,-141.339 462,-169 462,-169 462,-169 380.681,-169 380.681,-169"/>
<polygon fill="black" stroke="black" points="380.681,-165.5 370.681,-169 380.681,-172.5 380.681,-165.5"/>
</g>
<!-- CompodocComponent -->
<g id="node2" class="node"><title>CompodocComponent</title>
<polygon fill="#ffffb3" stroke="black" points="372.274,-122 229.726,-122 229.726,-86 372.274,-86 372.274,-122"/>
<text text-anchor="middle" x="301" y="-99.8" font-family="Times,serif" font-size="14.00">CompodocComponent</text>
</g>
<!-- CompodocComponent&#45;&gt;AboutRoutingModule -->
<g id="edge2" class="edge"><title>CompodocComponent&#45;&gt;AboutRoutingModule</title>
<path fill="none" stroke="black" d="M301,-122.106C301,-122.106 301,-140.991 301,-140.991"/>
<polygon fill="black" stroke="black" points="297.5,-140.991 301,-150.991 304.5,-140.991 297.5,-140.991"/>
</g>
<!-- RouterModule  -->
<g id="node5" class="node"><title>RouterModule </title>
<polygon fill="#fb8072" stroke="black" points="351.652,-252 250.348,-252 250.348,-216 351.652,-216 351.652,-252"/>
<text text-anchor="middle" x="301" y="-229.8" font-family="Times,serif" font-size="14.00">RouterModule </text>
</g>
<!-- AboutRoutingModule&#45;&gt;RouterModule  -->
<g id="edge4" class="edge"><title>AboutRoutingModule&#45;&gt;RouterModule </title>
<path fill="none" stroke="black" stroke-dasharray="5,2" d="M301,-187.106C301,-187.106 301,-205.991 301,-205.991"/>
<polygon fill="black" stroke="black" points="297.5,-205.991 301,-215.991 304.5,-205.991 297.5,-205.991"/>
</g>
<!-- RouterModule.forChild(args) -->
<g id="node4" class="node"><title>RouterModule.forChild(args)</title>
<polygon fill="#8dd3c7" stroke="black" points="205.732,-122 202.732,-126 181.732,-126 178.732,-122 24.2677,-122 24.2677,-86 205.732,-86 205.732,-122"/>
<text text-anchor="middle" x="115" y="-99.8" font-family="Times,serif" font-size="14.00">RouterModule.forChild(args)</text>
</g>
<!-- RouterModule.forChild(args)&#45;&gt;AboutRoutingModule -->
<g id="edge3" class="edge"><title>RouterModule.forChild(args)&#45;&gt;AboutRoutingModule</title>
<path fill="none" stroke="black" d="M115,-122.106C115,-141.339 115,-169 115,-169 115,-169 221.211,-169 221.211,-169"/>
<polygon fill="black" stroke="black" points="221.211,-172.5 231.211,-169 221.211,-165.5 221.211,-172.5"/>
</g>
</g>
</svg>
